  0
SECTION
  2
HEADER
  9
$ACADVER
  1
AC1024
  9
$ACADMAINTVER
 70
     6
  9
$DWGCODEPAGE
  3
UNDEFINED
  9
$INSBASE
 10
0.0
 20
0.0
 30
0.0
  9
$EXTMIN
 10
1.000000000000000E+20
 20
1.000000000000000E+20
 30
1.000000000000000E+20
  9
$EXTMAX
 10
-1.000000000000000E+20
 20
-1.000000000000000E+20
 30
-1.000000000000000E+20
  9
$LIMMIN
 10
0.0
 20
0.0
  9
$LIMMAX
 10
12.0
 20
9.0
  9
$ORTHOMODE
 70
     0
  9
$REGENMODE
 70
     1
  9
$FILLMODE
 70
     1
  9
$QTEXTMODE
 70
     0
  9
$MIRRTEXT
 70
     1
  9
$LTSCALE
 40
1.0
  9
$ATTMODE
 70
     1
  9
$TEXTSIZE
 40
0.2
  9
$TRACEWID
 40
0.05
  9
$TEXTSTYLE
  7
Standard
  9
$CLAYER
  8
0
  9
$CELTYPE
  6
ByLayer
  9
$CECOLOR
 62
   256
  9
$CELTSCALE
 40
1.0
  9
$DISPSILH
 70
     0
  9
$DIMSCALE
 40
1.0
  9
$DIMASZ
 40
0.18
  9
$DIMEXO
 40
0.0625
  9
$DIMDLI
 40
0.38
  9
$DIMRND
 40
0.0
  9
$DIMDLE
 40
0.0
  9
$DIMEXE
 40
0.18
  9
$DIMTP
 40
0.0
  9
$DIMTM
 40
0.0
  9
$DIMTXT
 40
0.18
  9
$DIMCEN
 40
0.09
  9
$DIMTSZ
 40
0.0
  9
$DIMTOL
 70
     0
  9
$DIMLIM
 70
     0
  9
$DIMTIH
 70
     1
  9
$DIMTOH
 70
     1
  9
$DIMSE1
 70
     0
  9
$DIMSE2
 70
     0
  9
$DIMTAD
 70
     0
  9
$DIMZIN
 70
     0
  9
$DIMBLK
  1

  9
$DIMASO
 70
     1
  9
$DIMSHO
 70
     1
  9
$DIMPOST
  1

  9
$DIMAPOST
  1

  9
$DIMALT
 70
     0
  9
$DIMALTD
 70
     2
  9
$DIMALTF
 40
25.4
  9
$DIMLFAC
 40
1.0
  9
$DIMTOFL
 70
     0
  9
$DIMTVP
 40
0.0
  9
$DIMTIX
 70
     0
  9
$DIMSOXD
 70
     0
  9
$DIMSAH
 70
     0
  9
$DIMBLK1
  1

  9
$DIMBLK2
  1

  9
$DIMSTYLE
  2
Standard
  9
$DIMCLRD
 70
     0
  9
$DIMCLRE
 70
     0
  9
$DIMCLRT
 70
     0
  9
$DIMTFAC
 40
1.0
  9
$DIMGAP
 40
0.09
  9
$DIMJUST
 70
     0
  9
$DIMSD1
 70
     0
  9
$DIMSD2
 70
     0
  9
$DIMTOLJ
 70
     1
  9
$DIMTZIN
 70
     0
  9
$DIMALTZ
 70
     0
  9
$DIMALTTZ
 70
     0
  9
$DIMUPT
 70
     0
  9
$DIMDEC
 70
     4
  9
$DIMTDEC
 70
     4
  9
$DIMALTU
 70
     2
  9
$DIMALTTD
 70
     2
  9
$DIMTXSTY
  7
Standard
  9
$DIMAUNIT
 70
     0
  9
$DIMADEC
 70
     0
  9
$DIMALTRND
 40
0.0
  9
$DIMAZIN
 70
     0
  9
$DIMDSEP
 70
    46
  9
$DIMATFIT
 70
     3
  9
$DIMFRAC
 70
     0
  9
$DIMLDRBLK
  1

  9
$DIMLUNIT
 70
     2
  9
$DIMLWD
 70
    -2
  9
$DIMLWE
 70
    -2
  9
$DIMTMOVE
 70
     0
  9
$DIMFXL
 40
1.0
  9
$DIMFXLON
 70
     0
  9
$DIMJOGANG
 40
0.7853981633974483
  9
$DIMTFILL
 70
     0
  9
$DIMTFILLCLR
 70
     0
  9
$DIMARCSYM
 70
     0
  9
$DIMLTYPE
  6

  9
$DIMLTEX1
  6

  9
$DIMLTEX2
  6

  9
$DIMTXTDIRECTION
 70
     0
  9
$LUNITS
 70
     2
  9
$LUPREC
 70
     4
  9
$SKETCHINC
 40
0.1
  9
$FILLETRAD
 40
0.5
  9
$AUNITS
 70
     0
  9
$AUPREC
 70
     0
  9
$MENU
  1
.
  9
$ELEVATION
 40
0.0
  9
$PELEVATION
 40
0.0
  9
$THICKNESS
 40
0.0
  9
$LIMCHECK
 70
     0
  9
$CHAMFERA
 40
0.5
  9
$CHAMFERB
 40
0.5
  9
$CHAMFERC
 40
1.0
  9
$CHAMFERD
 40
0.0
  9
$SKPOLY
 70
     0
  9
$TDCREATE
 40
2456753.757777778
  9
$TDUCREATE
 40
2456753.757777778
  9
$TDUPDATE
 40
2456753.757777778
  9
$TDUUPDATE
 40
2456753.757777778
  9
$TDINDWG
 40
0.0000000116
  9
$TDUSRTIMER
 40
0.0000000116
  9
$USRTIMER
 70
     1
  9
$ANGBASE
 50
0.0
  9
$ANGDIR
 70
     0
  9
$PDMODE
 70
     0
  9
$PDSIZE
 40
0.0
  9
$PLINEWID
 40
0.0
  9
$SPLFRAME
 70
     0
  9
$SPLINETYPE
 70
     6
  9
$SPLINESEGS
 70
     8
  9
$HANDSEED
  5
70
  9
$SURFTAB1
 70
     6
  9
$SURFTAB2
 70
     6
  9
$SURFTYPE
 70
     6
  9
$SURFU
 70
     6
  9
$SURFV
 70
     6
  9
$UCSBASE
  2

  9
$UCSNAME
  2

  9
$UCSORG
 10
0.0
 20
0.0
 30
0.0
  9
$UCSXDIR
 10
1.0
 20
0.0
 30
0.0
  9
$UCSYDIR
 10
0.0
 20
1.0
 30
0.0
  9
$UCSORTHOREF
  2

  9
$UCSORTHOVIEW
 70
     0
  9
$UCSORGTOP
 10
0.0
 20
0.0
 30
0.0
  9
$UCSORGBOTTOM
 10
0.0
 20
0.0
 30
0.0
  9
$UCSORGLEFT
 10
0.0
 20
0.0
 30
0.0
  9
$UCSORGRIGHT
 10
0.0
 20
0.0
 30
0.0
  9
$UCSORGFRONT
 10
0.0
 20
0.0
 30
0.0
  9
$UCSORGBACK
 10
0.0
 20
0.0
 30
0.0
  9
$PUCSBASE
  2

  9
$PUCSNAME
  2

  9
$PUCSORG
 10
0.0
 20
0.0
 30
0.0
  9
$PUCSXDIR
 10
1.0
 20
0.0
 30
0.0
  9
$PUCSYDIR
 10
0.0
 20
1.0
 30
0.0
  9
$PUCSORTHOREF
  2

  9
$PUCSORTHOVIEW
 70
     0
  9
$PUCSORGTOP
 10
0.0
 20
0.0
 30
0.0
  9
$PUCSORGBOTTOM
 10
0.0
 20
0.0
 30
0.0
  9
$PUCSORGLEFT
 10
0.0
 20
0.0
 30
0.0
  9
$PUCSORGRIGHT
 10
0.0
 20
0.0
 30
0.0
  9
$PUCSORGFRONT
 10
0.0
 20
0.0
 30
0.0
  9
$PUCSORGBACK
 10
0.0
 20
0.0
 30
0.0
  9
$USERI1
 70
     0
  9
$USERI2
 70
     0
  9
$USERI3
 70
     0
  9
$USERI4
 70
     0
  9
$USERI5
 70
     0
  9
$USERR1
 40
0.0
  9
$USERR2
 40
0.0
  9
$USERR3
 40
0.0
  9
$USERR4
 40
0.0
  9
$USERR5
 40
0.0
  9
$WORLDVIEW
 70
     1
  9
$SHADEDGE
 70
     3
  9
$SHADEDIF
 70
    70
  9
$TILEMODE
 70
     1
  9
$MAXACTVP
 70
    64
  9
$PINSBASE
 10
0.0
 20
0.0
 30
0.0
  9
$PLIMCHECK
 70
     0
  9
$PEXTMIN
 10
1.000000000000000E+20
 20
1.000000000000000E+20
 30
1.000000000000000E+20
  9
$PEXTMAX
 10
-1.000000000000000E+20
 20
-1.000000000000000E+20
 30
-1.000000000000000E+20
  9
$PLIMMIN
 10
0.0
 20
0.0
  9
$PLIMMAX
 10
12.0
 20
9.0
  9
$UNITMODE
 70
     0
  9
$VISRETAIN
 70
     1
  9
$PLINEGEN
 70
     0
  9
$PSLTSCALE
 70
     1
  9
$TREEDEPTH
 70
  3020
  9
$CMLSTYLE
  2
Standard
  9
$CMLJUST
 70
     0
  9
$CMLSCALE
 40
1.0
  9
$PROXYGRAPHICS
 70
     1
  9
$MEASUREMENT
 70
     0
  9
$CELWEIGHT
370
    -1
  9
$ENDCAPS
280
     0
  9
$JOINSTYLE
280
     0
  9
$LWDISPLAY
290
     1
  9
$INSUNITS
 70
     1
  9
$HYPERLINKBASE
  1

  9
$STYLESHEET
  1

  9
$XEDIT
290
     1
  9
$CEPSNTYPE
380
     0
  9
$PSTYLEMODE
290
     1
  9
$FINGERPRINTGUID
  2
{5E3F9B81-D687-0FDA-3E63-5FB473ACC438}
  9
$VERSIONGUID
  2
{FAEB1C32-E019-11D5-929B-00C0DF256EC4}
  9
$EXTNAMES
290
     1
  9
$PSVPSCALE
 40
0.0
  9
$OLESTARTUP
290
     0
  9
$SORTENTS
280
   127
  9
$INDEXCTL
280
     0
  9
$HIDETEXT
280
     1
  9
$XCLIPFRAME
280
     2
  9
$HALOGAP
280
     0
  9
$OBSCOLOR
 70
   257
  9
$OBSLTYPE
280
     0
  9
$INTERSECTIONDISPLAY
280
     0
  9
$INTERSECTIONCOLOR
 70
   257
  9
$DIMASSOC
280
     2
  9
$PROJECTNAME
  1

  9
$CAMERADISPLAY
290
     0
  9
$LENSLENGTH
 40
50.0
  9
$CAMERAHEIGHT
 40
0.0
  9
$STEPSPERSEC
 40
2.0
  9
$STEPSIZE
 40
6.0
  9
$3DDWFPREC
 40
2.0
  9
$PSOLWIDTH
 40
0.25
  9
$PSOLHEIGHT
 40
4.0
  9
$LOFTANG1
 40
1.570796326794897
  9
$LOFTANG2
 40
1.570796326794897
  9
$LOFTMAG1
 40
0.0
  9
$LOFTMAG2
 40
0.0
  9
$LOFTPARAM
 70
     7
  9
$LOFTNORMALS
280
     1
  9
$LATITUDE
 40
37.795
  9
$LONGITUDE
 40
-122.394
  9
$NORTHDIRECTION
 40
0.0
  9
$TIMEZONE
 70
 -8000
  9
$LIGHTGLYPHDISPLAY
280
     1
  9
$TILEMODELIGHTSYNCH
280
     1
  9
$CMATERIAL
347
3C
  9
$SOLIDHIST
280
     1
  9
$SHOWHIST
280
     1
  9
$DWFFRAME
280
     2
  9
$DGNFRAME
280
     2
  9
$REALWORLDSCALE
290
     1
  9
$INTERFERECOLOR
 62
   256
  9
$CSHADOW
280
     0
  9
$SHADOWPLANELOCATION
 40
0.0
  0
ENDSEC
  0
SECTION
  2
CLASSES
  0
CLASS
  1
ACDBDICTIONARYWDFLT
  2
AcDbDictionaryWithDefault
  3
ObjectDBX Classes
 90
        0
 91
        4
280
     0
281
     0
  0
CLASS
  1
VISUALSTYLE
  2
AcDbVisualStyle
  3
ObjectDBX Classes
 90
     4095
 91
        4
280
     0
281
     0
  0
CLASS
  1
MATERIAL
  2
AcDbMaterial
  3
ObjectDBX Classes
 90
     1153
 91
        4
280
     0
281
     0
  0
CLASS
  1
SUN
  2
AcDbSun
  3
SCENEOE
 90
     1024
 91
        4
280
     0
281
     0
  0
ENDSEC
  0
SECTION
  2
TABLES
  0
TABLE
  2
VPORT
  5
8
330
0
100
AcDbSymbolTable
 70
     1
  0
VPORT
  5
29
330
8
100
AcDbSymbolTableRecord
100
AcDbViewportTableRecord
  2
*Active
 70
     0
 10
0.0
 20
0.0
 11
1.0
 21
1.0
 12
0.0
 22
0.0
 13
0.0
 23
0.0
 14
0.5
 24
0.5
 15
0.5
 25
0.5
 16
0.0
 26
0.0
 36
1.0
 17
4.133888888888893
 27
-5.846458333333329
 37
0.0
 40
11.69291666666666
 41
0.7070757462376333
 42
50.0
 43
0.0
 44
0.0
 50
0.0
 51
0.0
 71
     0
 72
   100
 73
     1
 74
     3
 75
     0
 76
     0
 77
     0
 78
     0
281
     0
 65
     1
110
0.0
120
0.0
130
0.0
111
1.0
121
0.0
131
0.0
112
0.0
122
1.0
132
0.0
 79
     0
146
0.0
 60
     3
 61
     5
292
     1
282
     1
141
0.0
142
0.0
 63
   250
361
3F
  0
ENDTAB
  0
TABLE
  2
LTYPE
  5
5
330
0
100
AcDbSymbolTable
 70
     1
  0
LTYPE
  5
14
330
5
100
AcDbSymbolTableRecord
100
AcDbLinetypeTableRecord
  2
ByBlock
 70
     0
  3

 72
    65
 73
     0
 40
0.0
  0
LTYPE
  5
15
330
5
100
AcDbSymbolTableRecord
100
AcDbLinetypeTableRecord
  2
ByLayer
 70
     0
  3

 72
    65
 73
     0
 40
0.0
  0
LTYPE
  5
16
330
5
100
AcDbSymbolTableRecord
100
AcDbLinetypeTableRecord
  2
Continuous
 70
     0
  3
Solid line
 72
    65
 73
     0
 40
0.0
  0
ENDTAB
  0
TABLE
  2
LAYER
  5
2
330
0
100
AcDbSymbolTable
 70
     2
  0
LAYER
  5
10
330
2
100
AcDbSymbolTableRecord
100
AcDbLayerTableRecord
  2
0
 70
     0
 62
     7
  6
Continuous
370
    -3
390
F
347
3E
  0
LAYER
  5
40
330
2
100
AcDbSymbolTableRecord
100
AcDbLayerTableRecord
  2
Layer 1
 70
     0
 62
     7
  6
Continuous
370
    -3
390
F
347
3E
  0
ENDTAB
  0
TABLE
  2
STYLE
  5
3
330
0
100
AcDbSymbolTable
 70
     1
  0
STYLE
  5
11
330
3
100
AcDbSymbolTableRecord
100
AcDbTextStyleTableRecord
  2
Standard
 70
     0
 40
0.0
 41
1.0
 50
0.0
 71
     0
 42
0.2
  3
txt
  4

  0
ENDTAB
  0
TABLE
  2
VIEW
  5
6
330
0
100
AcDbSymbolTable
 70
     0
  0
ENDTAB
  0
TABLE
  2
UCS
  5
7
330
0
100
AcDbSymbolTable
 70
     0
  0
ENDTAB
  0
TABLE
  2
APPID
  5
9
330
0
100
AcDbSymbolTable
 70
     1
  0
APPID
  5
12
330
9
100
AcDbSymbolTableRecord
100
AcDbRegAppTableRecord
  2
ACAD
 70
     0
  0
ENDTAB
  0
TABLE
  2
DIMSTYLE
  5
A
330
0
100
AcDbSymbolTable
 70
     1
100
AcDbDimStyleTable
  0
DIMSTYLE
105
27
330
A
100
AcDbSymbolTableRecord
100
AcDbDimStyleTableRecord
  2
Standard
 70
     0
178
     0
340
11
  0
ENDTAB
  0
TABLE
  2
BLOCK_RECORD
  5
1
330
0
100
AcDbSymbolTable
 70
     1
  0
BLOCK_RECORD
  5
1F
330
1
100
AcDbSymbolTableRecord
100
AcDbBlockTableRecord
  2
*Model_Space
340
22
 70
     0
280
     1
281
     0
  0
BLOCK_RECORD
  5
1B
330
1
100
AcDbSymbolTableRecord
100
AcDbBlockTableRecord
  2
*Paper_Space
340
1E
 70
     0
280
     1
281
     0
  0
BLOCK_RECORD
  5
23
330
1
100
AcDbSymbolTableRecord
100
AcDbBlockTableRecord
  2
*Paper_Space0
340
26
 70
     0
280
     1
281
     0
  0
ENDTAB
  0
ENDSEC
  0
SECTION
  2
BLOCKS
  0
BLOCK
  5
20
330
1F
100
AcDbEntity
  8
0
100
AcDbBlockBegin
  2
*Model_Space
 70
     0
 10
0.0
 20
0.0
 30
0.0
  3
*Model_Space
  1

  0
ENDBLK
  5
21
330
1F
100
AcDbEntity
  8
0
100
AcDbBlockEnd
  0
BLOCK
  5
1C
330
1B
100
AcDbEntity
 67
     1
  8
0
100
AcDbBlockBegin
  2
*Paper_Space
 70
     0
 10
0.0
 20
0.0
 30
0.0
  3
*Paper_Space
  1

  0
ENDBLK
  5
1D
330
1B
100
AcDbEntity
 67
     1
  8
0
100
AcDbBlockEnd
  0
BLOCK
  5
24
330
23
100
AcDbEntity
  8
0
100
AcDbBlockBegin
  2
*Paper_Space0
 70
     0
 10
0.0
 20
0.0
 30
0.0
  3
*Paper_Space0
  1

  0
ENDBLK
  5
25
330
23
100
AcDbEntity
  8
0
100
AcDbBlockEnd
  0
ENDSEC
  0
SECTION
  2
ENTITIES
  0
SPLINE
  5
41
330
1F
100
AcDbEntity
  8
Layer 1
 62
   179
420
  2301728
370
     5
100
AcDbSpline
210
0.0
220
0.0
230
1.0
 70
     8
 71
     3
 72
   176
 73
   172
 74
     0
 42
0.0000000001
 43
0.0000000001
 12
1.0
 22
0.0
 32
0.0
 13
1.0
 23
0.0
 33
0.0
 40
0.0
 40
0.0
 40
0.0
 40
0.0
 40
1.0
 40
1.0
 40
1.0
 40
2.0
 40
2.0
 40
2.0
 40
3.0
 40
3.0
 40
3.0
 40
4.0
 40
4.0
 40
4.0
 40
5.0
 40
5.0
 40
5.0
 40
6.0
 40
6.0
 40
6.0
 40
7.0
 40
7.0
 40
7.0
 40
8.0
 40
8.0
 40
8.0
 40
9.0
 40
9.0
 40
9.0
 40
10.0
 40
10.0
 40
10.0
 40
11.0
 40
11.0
 40
11.0
 40
12.0
 40
12.0
 40
12.0
 40
13.0
 40
13.0
 40
13.0
 40
14.0
 40
14.0
 40
14.0
 40
15.0
 40
15.0
 40
15.0
 40
16.0
 40
16.0
 40
16.0
 40
17.0
 40
17.0
 40
17.0
 40
18.0
 40
18.0
 40
18.0
 40
19.0
 40
19.0
 40
19.0
 40
20.0
 40
20.0
 40
20.0
 40
21.0
 40
21.0
 40
21.0
 40
22.0
 40
22.0
 40
22.0
 40
23.0
 40
23.0
 40
23.0
 40
24.0
 40
24.0
 40
24.0
 40
25.0
 40
25.0
 40
25.0
 40
26.0
 40
26.0
 40
26.0
 40
27.0
 40
27.0
 40
27.0
 40
28.0
 40
28.0
 40
28.0
 40
29.0
 40
29.0
 40
29.0
 40
30.0
 40
30.0
 40
30.0
 40
31.0
 40
31.0
 40
31.0
 40
32.0
 40
32.0
 40
32.0
 40
33.0
 40
33.0
 40
33.0
 40
34.0
 40
34.0
 40
34.0
 40
35.0
 40
35.0
 40
35.0
 40
36.0
 40
36.0
 40
36.0
 40
37.0
 40
37.0
 40
37.0
 40
38.0
 40
38.0
 40
38.0
 40
39.0
 40
39.0
 40
39.0
 40
40.0
 40
40.0
 40
40.0
 40
41.0
 40
41.0
 40
41.0
 40
42.0
 40
42.0
 40
42.0
 40
43.0
 40
43.0
 40
43.0
 40
44.0
 40
44.0
 40
44.0
 40
45.0
 40
45.0
 40
45.0
 40
46.0
 40
46.0
 40
46.0
 40
47.0
 40
47.0
 40
47.0
 40
48.0
 40
48.0
 40
48.0
 40
49.0
 40
49.0
 40
49.0
 40
50.0
 40
50.0
 40
50.0
 40
51.0
 40
51.0
 40
51.0
 40
52.0
 40
52.0
 40
52.0
 40
53.0
 40
53.0
 40
53.0
 40
54.0
 40
54.0
 40
54.0
 40
55.0
 40
55.0
 40
55.0
 40
56.0
 40
56.0
 40
56.0
 40
57.0
 40
57.0
 40
57.0
 40
57.0
 10
2.481733797810812
 20
-3.825234849709179
 30
0.0
 10
2.481733797810812
 20
-3.825234849709179
 30
0.0
 10
2.108811310497913
 20
-3.455755522736328
 30
0.0
 10
2.108811310497913
 20
-3.455755522736328
 30
0.0
 10
2.108811310497913
 20
-3.455755522736328
 30
0.0
 10
2.35072166484589
 20
-3.23386166249227
 30
0.0
 10
2.35072166484589
 20
-3.23386166249227
 30
0.0
 10
2.35072166484589
 20
-3.23386166249227
 30
0.0
 10
2.671210893343818
 20
-3.302359914026409
 30
0.0
 10
2.671210893343818
 20
-3.302359914026409
 30
0.0
 10
2.671210893343818
 20
-3.302359914026409
 30
0.0
 10
3.070902787123524
 20
-3.140120068309038
 30
0.0
 10
3.070902787123524
 20
-3.140120068309038
 30
0.0
 10
3.070902787123524
 20
-3.140120068309038
 30
0.0
 10
3.26349456428981
 20
-3.24819875942929
 30
0.0
 10
3.26349456428981
 20
-3.24819875942929
 30
0.0
 10
3.26349456428981
 20
-3.24819875942929
 30
0.0
 10
3.302500794479329
 20
-3.351364803322541
 30
0.0
 10
3.302500794479329
 20
-3.351364803322541
 30
0.0
 10
3.302500794479329
 20
-3.351364803322541
 30
0.0
 10
3.512788544761911
 20
-3.858014956607121
 30
0.0
 10
3.512788544761911
 20
-3.858014956607121
 30
0.0
 10
3.512788544761911
 20
-3.858014956607121
 30
0.0
 10
3.397668712537754
 20
-4.287648019323569
 30
0.0
 10
3.397668712537754
 20
-4.287648019323569
 30
0.0
 10
3.397668712537754
 20
-4.287648019323569
 30
0.0
 10
3.826704475504787
 20
-3.772706836919168
 30
0.0
 10
3.826704475504787
 20
-3.772706836919168
 30
0.0
 10
3.826704475504787
 20
-3.772706836919168
 30
0.0
 10
3.74372935897726
 20
-3.09664634254164
 30
0.0
 10
3.74372935897726
 20
-3.09664634254164
 30
0.0
 10
3.74372935897726
 20
-3.09664634254164
 30
0.0
 10
3.539736217788105
 20
-2.768465178023234
 30
0.0
 10
3.539736217788105
 20
-2.768465178023234
 30
0.0
 10
3.539736217788105
 20
-2.768465178023234
 30
0.0
 10
3.718668134751018
 20
-2.440503035565371
 30
0.0
 10
3.718668134751018
 20
-2.440503035565371
 30
0.0
 10
3.718668134751018
 20
-2.440503035565371
 30
0.0
 10
3.810704967556502
 20
-2.066289586374574
 30
0.0
 10
3.810704967556502
 20
-2.066289586374574
 30
0.0
 10
3.810704967556502
 20
-2.066289586374574
 30
0.0
 10
4.638844472460556
 20
-2.20715090079001
 30
0.0
 10
4.638844472460556
 20
-2.20715090079001
 30
0.0
 10
4.638844472460556
 20
-2.20715090079001
 30
0.0
 10
4.726983241253517
 20
-1.964275218825441
 30
0.0
 10
4.726983241253517
 20
-1.964275218825441
 30
0.0
 10
4.726983241253517
 20
-1.964275218825441
 30
0.0
 10
4.780810304144577
 20
-1.687005704166432
 30
0.0
 10
4.780810304144577
 20
-1.687005704166432
 30
0.0
 10
4.780810304144577
 20
-1.687005704166432
 30
0.0
 10
4.340144362568329
 20
-1.688848116414091
 30
0.0
 10
4.340144362568329
 20
-1.688848116414091
 30
0.0
 10
4.340144362568329
 20
-1.688848116414091
 30
0.0
 10
3.810704967629792
 20
-1.522229473182266
 30
0.0
 10
3.810704967629792
 20
-1.522229473182266
 30
0.0
 10
3.810704967629792
 20
-1.522229473182266
 30
0.0
 10
3.811709374222876
 20
-1.52164957893582
 30
0.0
 10
3.811709374222876
 20
-1.52164957893582
 30
0.0
 10
3.811709374222876
 20
-1.52164957893582
 30
0.0
 10
3.402693698993239
 20
-1.89684822312539
 30
0.0
 10
3.402693698993239
 20
-1.89684822312539
 30
0.0
 10
3.402693698993239
 20
-1.89684822312539
 30
0.0
 10
3.18395630403874
 20
-2.279397329249946
 30
0.0
 10
3.18395630403874
 20
-2.279397329249946
 30
0.0
 10
3.18395630403874
 20
-2.279397329249946
 30
0.0
 10
2.970747392083505
 20
-2.094146968058428
 30
0.0
 10
2.970747392083505
 20
-2.094146968058428
 30
0.0
 10
2.970747392083505
 20
-2.094146968058428
 30
0.0
 10
2.804480265925336
 20
-1.896378714253122
 30
0.0
 10
2.804480265925336
 20
-1.896378714253122
 30
0.0
 10
2.804480265925336
 20
-1.896378714253122
 30
0.0
 10
3.340539495032873
 20
-1.249619522304366
 30
0.0
 10
3.340539495032873
 20
-1.249619522304366
 30
0.0
 10
3.340539495032873
 20
-1.249619522304366
 30
0.0
 10
3.062479557982657
 20
-0.9828065624322005
 30
0.0
 10
3.062479557982657
 20
-0.9828065624322005
 30
0.0
 10
3.062479557982657
 20
-0.9828065624322005
 30
0.0
 10
2.867921969596902
 20
-0.6638659055772173
 30
0.0
 10
2.867921969596902
 20
-0.6638659055772173
 30
0.0
 10
2.867921969596902
 20
-0.6638659055772173
 30
0.0
 10
2.481712173486597
 20
-0.6764385658086792
 30
0.0
 10
2.481712173486597
 20
-0.6764385658086792
 30
0.0
 10
2.481712173486597
 20
-0.6764385658086792
 30
0.0
 10
2.483338054916986
 20
-0.7559928022276254
 30
0.0
 10
2.483338054916986
 20
-0.7559928022276254
 30
0.0
 10
2.483338055043899
 20
-0.7559927829488136
 30
0.0
 10
2.481116496807191
 20
-1.093487092505585
 30
0.0
 10
2.481116496807191
 20
-1.093487092505585
 30
0.0
 10
2.481116496807191
 20
-1.093487092505585
 30
0.0
 10
2.672035303808292
 20
-1.124504076420307
 30
0.0
 10
2.672035303808292
 20
-1.124504076420307
 30
0.0
 10
2.672035303808292
 20
-1.124504076420307
 30
0.0
 10
2.7528787534246
 20
-1.295492280626036
 30
0.0
 10
2.7528787534246
 20
-1.295492280626036
 30
0.0
 10
2.7528787534246
 20
-1.295492280626036
 30
0.0
 10
2.413299802119139
 20
-1.612552926859065
 30
0.0
 10
2.413299802119139
 20
-1.612552926859065
 30
0.0
 10
2.413299802119139
 20
-1.612552926859065
 30
0.0
 10
2.206356642847292
 20
-1.585232772382773
 30
0.0
 10
2.206356642847292
 20
-1.585232772382773
 30
0.0
 10
2.206356642847292
 20
-1.585232772382773
 30
0.0
 10
2.074070675814242
 20
-0.9098269609347779
 30
0.0
 10
2.074070675814242
 20
-0.9098269609347779
 30
0.0
 10
2.074070675814242
 20
-0.9098269609347779
 30
0.0
 10
1.538284120226699
 20
-0.6619294715987709
 30
0.0
 10
1.538284120226699
 20
-0.6619294715987709
 30
0.0
 10
1.538284120226699
 20
-0.6619294715987709
 30
0.0
 10
1.341368514838918
 20
-0.7555968958949582
 30
0.0
 10
1.341368514838918
 20
-0.7555968958949582
 30
0.0
 10
1.341368514838918
 20
-0.7555968958949582
 30
0.0
 10
1.153362478700728
 20
-1.523854539727267
 30
0.0
 10
1.153362478700728
 20
-1.523854539727267
 30
0.0
 10
1.153362478700728
 20
-1.523854539727267
 30
0.0
 10
1.151758221743421
 20
-1.521649578736767
 30
0.0
 10
1.151758221743421
 20
-1.521649578736767
 30
0.0
 10
1.151758221743421
 20
-1.521649578736767
 30
0.0
 10
1.723085839917467
 20
-2.068596403979225
 30
0.0
 10
1.723085839917467
 20
-2.068596403979225
 30
0.0
 10
1.723085839917467
 20
-2.068596403979225
 30
0.0
 10
1.705746406184125
 20
-2.285964032795782
 30
0.0
 10
1.705746406184125
 20
-2.285964032795782
 30
0.0
 10
1.705746406184125
 20
-2.285964032795782
 30
0.0
 10
1.223167605111384
 20
-2.626020056301627
 30
0.0
 10
1.223167605111384
 20
-2.626020056301627
 30
0.0
 10
1.223167605111384
 20
-2.626020056301627
 30
0.0
 10
0.5721060310038916
 20
-2.402880158631433
 30
0.0
 10
0.5721060310038916
 20
-2.402880158631433
 30
0.0
 10
0.5721060310038916
 20
-2.402880158631433
 30
0.0
 10
0.4449745035660473
 20
-2.568438114469725
 30
0.0
 10
0.4449745035660473
 20
-2.568438114469725
 30
0.0
 10
0.4449745035660473
 20
-2.568438114469725
 30
0.0
 10
0.549767602118575
 20
-3.021052436000951
 30
0.0
 10
0.549767602118575
 20
-3.021052436000951
 30
0.0
 10
0.549767602118575
 20
-3.021052436000951
 30
0.0
 10
0.7382694555172848
 20
-3.036534056995252
 30
0.0
 10
0.7382694555172848
 20
-3.036534056995252
 30
0.0
 10
0.7382694555172848
 20
-3.036534056995252
 30
0.0
 10
0.8605903550277895
 20
-2.886702012022106
 30
0.0
 10
0.8605903550277895
 20
-2.886702012022106
 30
0.0
 10
0.8605903550277895
 20
-2.886702012022106
 30
0.0
 10
1.220581329834709
 20
-3.096896530002292
 30
0.0
 10
1.220581329834709
 20
-3.096896530002292
 30
0.0
 10
1.220581329834709
 20
-3.096896530002292
 30
0.0
 10
1.764579334221493
 20
-2.687007724051253
 30
0.0
 10
1.764579334221493
 20
-2.687007724051253
 30
0.0
 10
1.764579334221493
 20
-2.687007724051253
 30
0.0
 10
2.425049361115207
 20
-2.801093002750084
 30
0.0
 10
2.425049361115207
 20
-2.801093002750084
 30
0.0
 10
2.425049361115207
 20
-2.801093002750084
 30
0.0
 10
1.995416298378094
 20
-2.91621283489706
 30
0.0
 10
1.995416298378094
 20
-2.91621283489706
 30
0.0
 10
1.995416298378094
 20
-2.91621283489706
 30
0.0
 10
1.661788269917578
 20
-3.351652445368775
 30
0.0
 10
1.661788269917578
 20
-3.351652445368775
 30
0.0
 10
1.661788269917578
 20
-3.351652445368775
 30
0.0
 10
1.591946970187716
 20
-3.437015853561206
 30
0.0
 10
1.591946970187716
 20
-3.437015853561206
 30
0.0
 10
1.591946970187716
 20
-3.437015853561206
 30
0.0
 10
1.594643966639726
 20
-3.657844570707488
 30
0.0
 10
1.594643966639726
 20
-3.657844570707488
 30
0.0
 10
1.594643966639726
 20
-3.657844570707488
 30
0.0
 10
1.934993741411025
 20
-3.922867981569122
 30
0.0
 10
1.934993741411025
 20
-3.922867981569122
 30
0.0
 10
1.934993741411025
 20
-3.922867981569122
 30
0.0
 10
2.035917129697951
 20
-4.234668920860713
 30
0.0
 10
2.035917129697951
 20
-4.234668920860713
 30
0.0
 10
2.035917129697951
 20
-4.234668920860713
 30
0.0
 10
2.349038026781184
 20
-4.333222503061279
 30
0.0
 10
2.349038026781184
 20
-4.333222503061279
 30
0.0
 10
2.349038026781184
 20
-4.333222503061279
 30
0.0
 10
2.482555266486808
 20
-3.825522491927384
 30
0.0
 10
2.482555266486808
 20
-3.825522491927384
 30
0.0
  0
POLYLINE
  5
42
330
1F
100
AcDbEntity
  8
Layer 1
 62
   179
420
  2301728
370
     5
100
AcDb2dPolyline
 66
     1
 10
0.0
 20
0.0
 30
0.0
  0
VERTEX
  5
43
330
42
100
AcDbEntity
  8
Layer 1
 62
   179
420
  2301728
370
     5
100
AcDbVertex
100
AcDb2dVertex
 10
2.387780341177707
 20
-4.185904647375891
 30
0.0
  0
VERTEX
  5
44
330
42
100
AcDbEntity
  8
Layer 1
 62
   179
420
  2301728
370
     5
100
AcDbVertex
100
AcDb2dVertex
 10
2.23277533949906
 20
-4.093703755030725
 30
0.0
  0
SEQEND
  5
45
330
42
100
AcDbEntity
  8
Layer 1
 62
   179
420
  2301728
370
     5
  0
POLYLINE
  5
46
330
1F
100
AcDbEntity
  8
Layer 1
 62
   179
420
  2301728
370
     5
100
AcDb2dPolyline
 66
     1
 10
0.0
 20
0.0
 30
0.0
  0
VERTEX
  5
47
330
46
100
AcDbEntity
  8
Layer 1
 62
   179
420
  2301728
370
     5
100
AcDbVertex
100
AcDb2dVertex
 10
2.444116570054588
 20
-3.971685838695521
 30
0.0
  0
VERTEX
  5
48
330
46
100
AcDbEntity
  8
Layer 1
 62
   179
420
  2301728
370
     5
100
AcDbVertex
100
AcDb2dVertex
 10
2.288938829735861
 20
-3.901303449450754
 30
0.0
  0
SEQEND
  5
49
330
46
100
AcDbEntity
  8
Layer 1
 62
   179
420
  2301728
370
     5
  0
SPLINE
  5
4A
330
1F
100
AcDbEntity
  8
Layer 1
 62
   179
420
  2301728
370
     5
100
AcDbSpline
210
0.0
220
0.0
230
1.0
 70
     8
 71
     3
 72
     8
 73
     4
 74
     0
 42
0.0000000001
 43
0.0000000001
 12
1.0
 22
0.0
 32
0.0
 13
1.0
 23
0.0
 33
0.0
 40
0.0
 40
0.0
 40
0.0
 40
0.0
 40
1.0
 40
1.0
 40
1.0
 40
1.0
 10
2.108811310497913
 20
-3.455755522736328
 30
0.0
 10
2.108811310497913
 20
-3.455755522736328
 30
0.0
 10
1.998588734834331
 20
-3.423591752526211
 30
0.0
 10
1.875795218230198
 20
-3.475396047615504
 30
0.0
  0
SPLINE
  5
4B
330
1F
100
AcDbEntity
  8
Layer 1
 62
   179
420
  2301728
370
     5
100
AcDbSpline
210
0.0
220
0.0
230
1.0
 70
     8
 71
     3
 72
     8
 73
     4
 74
     0
 42
0.0000000001
 43
0.0000000001
 12
1.0
 22
0.0
 32
0.0
 13
1.0
 23
0.0
 33
0.0
 40
0.0
 40
0.0
 40
0.0
 40
0.0
 40
1.0
 40
1.0
 40
1.0
 40
1.0
 10
0.5260316418052626
 20
-2.918533894975869
 30
0.0
 10
0.5260316418052626
 20
-2.918533894975869
 30
0.0
 10
0.6377241558935667
 20
-2.854953943531705
 30
0.0
 10
0.7146931467660806
 20
-2.774158080625259
 30
0.0
  0
SPLINE
  5
4C
330
1F
100
AcDbEntity
  8
Layer 1
 62
   179
420
  2301728
370
     5
100
AcDbSpline
210
0.0
220
0.0
230
1.0
 70
     8
 71
     3
 72
     8
 73
     4
 74
     0
 42
0.0000000001
 43
0.0000000001
 12
1.0
 22
0.0
 32
0.0
 13
1.0
 23
0.0
 33
0.0
 40
0.0
 40
0.0
 40
0.0
 40
0.0
 40
1.0
 40
1.0
 40
1.0
 40
1.0
 10
0.4818434743452195
 20
-2.727679747986334
 30
0.0
 10
0.4818434743452195
 20
-2.727679747986334
 30
0.0
 10
0.5907994834634943
 20
-2.672920348755585
 30
0.0
 10
0.6581696974682497
 20
-2.625877755615117
 30
0.0
  0
POLYLINE
  5
4D
330
1F
100
AcDbEntity
  8
Layer 1
 62
   179
420
  2301728
370
     5
100
AcDb2dPolyline
 66
     1
 10
0.0
 20
0.0
 30
0.0
  0
VERTEX
  5
4E
330
4D
100
AcDbEntity
  8
Layer 1
 62
   179
420
  2301728
370
     5
100
AcDbVertex
100
AcDb2dVertex
 10
1.762294124789744
 20
-1.754846507474364
 30
0.0
  0
VERTEX
  5
4F
330
4D
100
AcDbEntity
  8
Layer 1
 62
   179
420
  2301728
370
     5
100
AcDbVertex
100
AcDb2dVertex
 10
1.501466601183324
 20
-1.592758308727197
 30
0.0
  0
VERTEX
  5
50
330
4D
100
AcDbEntity
  8
Layer 1
 62
   179
420
  2301728
370
     5
100
AcDbVertex
100
AcDb2dVertex
 10
1.415970538828851
 20
-1.36910652637064
 30
0.0
  0
VERTEX
  5
51
330
4D
100
AcDbEntity
  8
Layer 1
 62
   179
420
  2301728
370
     5
100
AcDbVertex
100
AcDb2dVertex
 10
1.508034364124683
 20
-1.138129747143252
 30
0.0
  0
VERTEX
  5
52
330
4D
100
AcDbEntity
  8
Layer 1
 62
   179
420
  2301728
370
     5
100
AcDbVertex
100
AcDb2dVertex
 10
1.459282322404811
 20
-0.8899575071703667
 30
0.0
  0
SEQEND
  5
53
330
4D
100
AcDbEntity
  8
Layer 1
 62
   179
420
  2301728
370
     5
  0
POLYLINE
  5
54
330
1F
100
AcDbEntity
  8
Layer 1
 62
   179
420
  2301728
370
     5
100
AcDb2dPolyline
 66
     1
 10
0.0
 20
0.0
 30
0.0
  0
VERTEX
  5
55
330
54
100
AcDbEntity
  8
Layer 1
 62
   179
420
  2301728
370
     5
100
AcDbVertex
100
AcDb2dVertex
 10
2.045884928251452
 20
-1.591115280778682
 30
0.0
  0
VERTEX
  5
56
330
54
100
AcDbEntity
  8
Layer 1
 62
   179
420
  2301728
370
     5
100
AcDbVertex
100
AcDb2dVertex
 10
2.065725595536112
 20
-1.310612580865697
 30
0.0
  0
VERTEX
  5
57
330
54
100
AcDbEntity
  8
Layer 1
 62
   179
420
  2301728
370
     5
100
AcDbVertex
100
AcDb2dVertex
 10
1.928615452776373
 20
-1.07313084733999
 30
0.0
  0
VERTEX
  5
58
330
54
100
AcDbEntity
  8
Layer 1
 62
   179
420
  2301728
370
     5
100
AcDbVertex
100
AcDb2dVertex
 10
1.746291849998859
 20
-1.015114841681604
 30
0.0
  0
VERTEX
  5
59
330
54
100
AcDbEntity
  8
Layer 1
 62
   179
420
  2301728
370
     5
100
AcDbVertex
100
AcDb2dVertex
 10
1.595624054838317
 20
-0.811240571258976
 30
0.0
  0
SEQEND
  5
5A
330
54
100
AcDbEntity
  8
Layer 1
 62
   179
420
  2301728
370
     5
  0
SPLINE
  5
5B
330
1F
100
AcDbEntity
  8
Layer 1
 62
   179
420
  2301728
370
     5
100
AcDbSpline
210
0.0
220
0.0
230
1.0
 70
     8
 71
     3
 72
    17
 73
    13
 74
     0
 42
0.0000000001
 43
0.0000000001
 12
1.0
 22
0.0
 32
0.0
 13
1.0
 23
0.0
 33
0.0
 40
0.0
 40
0.0
 40
0.0
 40
0.0
 40
1.0
 40
1.0
 40
1.0
 40
2.0
 40
2.0
 40
2.0
 40
3.0
 40
3.0
 40
3.0
 40
4.0
 40
4.0
 40
4.0
 40
4.0
 10
1.484563112397773
 20
-1.548503716982863
 30
0.0
 10
1.481558280215053
 20
-1.551096352671417
 30
0.0
 10
1.478195469838965
 20
-1.553320209433031
 30
0.0
 10
1.474495557559218
 20
-1.555098832312145
 30
0.0
 10
1.448567686391079
 20
-1.567562885884172
 30
0.0
 10
1.415903824967497
 20
-1.553442580021131
 30
0.0
 10
1.401538781105905
 20
-1.523560246443645
 30
0.0
 10
1.387173737244338
 20
-1.493677912866171
 30
0.0
 10
1.396547260816128
 20
-1.459349383380994
 30
0.0
 10
1.42247513198428
 20
-1.446885329808929
 30
0.0
 10
1.428957075049564
 20
-1.443769328302564
 30
0.0
 10
1.435860014293869
 20
-1.442314836584501
 30
0.0
 10
1.442792785321571
 20
-1.442352757656787
 30
0.0
  0
SPLINE
  5
5C
330
1F
100
AcDbEntity
  8
Layer 1
 62
   179
420
  2301728
370
     5
100
AcDbSpline
210
0.0
220
0.0
230
1.0
 70
     8
 71
     3
 72
    17
 73
    13
 74
     0
 42
0.0000000001
 43
0.0000000001
 12
1.0
 22
0.0
 32
0.0
 13
1.0
 23
0.0
 33
0.0
 40
0.0
 40
0.0
 40
0.0
 40
0.0
 40
1.0
 40
1.0
 40
1.0
 40
2.0
 40
2.0
 40
2.0
 40
3.0
 40
3.0
 40
3.0
 40
4.0
 40
4.0
 40
4.0
 40
4.0
 10
1.49688700363956
 20
-1.580897722298472
 30
0.0
 10
1.490954370027339
 20
-1.586666813443205
 30
0.0
 10
1.484087380984862
 20
-1.591531841591265
 30
0.0
 10
1.476352261951938
 20
-1.595250270203754
 30
0.0
 10
1.432348029231308
 20
-1.616403997421483
 30
0.0
 10
1.376911616796305
 20
-1.592439313963483
 30
0.0
 10
1.352531569200892
 20
-1.541723651560952
 30
0.0
 10
1.328151521605504
 20
-1.49100798915846
 30
0.0
 10
1.344060066892161
 20
-1.432746337415943
 30
0.0
 10
1.388064299612804
 20
-1.411592610198189
 30
0.0
 10
1.401208630358345
 20
-1.405273863799039
 30
0.0
 10
1.415373000849816
 20
-1.402980821448611
 30
0.0
 10
1.429425000472103
 20
-1.404223951794809
 30
0.0
  0
SPLINE
  5
5D
330
1F
100
AcDbEntity
  8
Layer 1
 62
   179
420
  2301728
370
     5
100
AcDbSpline
210
0.0
220
0.0
230
1.0
 70
     8
 71
     3
 72
    17
 73
    13
 74
     0
 42
0.0000000001
 43
0.0000000001
 12
1.0
 22
0.0
 32
0.0
 13
1.0
 23
0.0
 33
0.0
 40
0.0
 40
0.0
 40
0.0
 40
0.0
 40
1.0
 40
1.0
 40
1.0
 40
2.0
 40
2.0
 40
2.0
 40
3.0
 40
3.0
 40
3.0
 40
4.0
 40
4.0
 40
4.0
 40
4.0
 10
1.963353849216876
 20
-1.132978813743231
 30
0.0
 10
1.965221006795648
 20
-1.130497041333115
 30
0.0
 10
1.967461487136347
 20
-1.128352531025851
 30
0.0
 10
1.970075330373131
 20
-1.126617110388957
 30
0.0
 10
1.988392356716885
 20
-1.114455805121666
 30
0.0
 10
2.018108144569244
 20
-1.126989250345521
 30
0.0
 10
2.036447400207875
 20
-1.154611343817969
 30
0.0
 10
2.05478665584648
 20
-1.182233437290455
 30
0.0
 10
2.054804676250455
 20
-1.214484254150825
 30
0.0
 10
2.036487649906702
 20
-1.226645559418153
 30
0.0
 10
2.031908410789229
 20
-1.229685874137039
 30
0.0
 10
2.026616754512828
 20
-1.231182778725611
 30
0.0
 10
2.020968540969357
 20
-1.231286366813656
 30
0.0
  0
SPLINE
  5
5E
330
1F
100
AcDbEntity
  8
Layer 1
 62
   179
420
  2301728
370
     5
100
AcDbSpline
210
0.0
220
0.0
230
1.0
 70
     8
 71
     3
 72
    17
 73
    13
 74
     0
 42
0.0000000001
 43
0.0000000001
 12
1.0
 22
0.0
 32
0.0
 13
1.0
 23
0.0
 33
0.0
 40
0.0
 40
0.0
 40
0.0
 40
0.0
 40
1.0
 40
1.0
 40
1.0
 40
2.0
 40
2.0
 40
2.0
 40
3.0
 40
3.0
 40
3.0
 40
4.0
 40
4.0
 40
4.0
 40
4.0
 10
1.946115830057831
 20
-1.102969890628313
 30
0.0
 10
1.949657492261786
 20
-1.09746260222956
 30
0.0
 10
1.954160539154234
 20
-1.092780974925088
 30
0.0
 10
1.959625098052243
 20
-1.089152865882561
 30
0.0
 10
1.990712366449783
 20
-1.068512956662959
 30
0.0
 10
2.04114537098192
 20
-1.089784453919441
 30
0.0
 10
2.07227036646696
 20
-1.136664084781235
 30
0.0
 10
2.103395361951976
 20
-1.183543715642991
 30
0.0
 10
2.103425945799182
 20
-1.238279117610722
 30
0.0
 10
2.072338677401654
 20
-1.258919026830376
 30
0.0
 10
2.063052722107601
 20
-1.265084292682483
 30
0.0
 10
2.052040637565748
 20
-1.267510000420467
 30
0.0
 10
2.040332628783441
 20
-1.266630667146615
 30
0.0
  0
SPLINE
  5
5F
330
1F
100
AcDbEntity
  8
Layer 1
 62
   179
420
  2301728
370
     5
100
AcDbSpline
210
0.0
220
0.0
230
1.0
 70
     8
 71
     3
 72
    29
 73
    25
 74
     0
 42
0.0000000001
 43
0.0000000001
 12
1.0
 22
0.0
 32
0.0
 13
1.0
 23
0.0
 33
0.0
 40
0.0
 40
0.0
 40
0.0
 40
0.0
 40
1.0
 40
1.0
 40
1.0
 40
2.0
 40
2.0
 40
2.0
 40
3.0
 40
3.0
 40
3.0
 40
4.0
 40
4.0
 40
4.0
 40
5.0
 40
5.0
 40
5.0
 40
6.0
 40
6.0
 40
6.0
 40
7.0
 40
7.0
 40
7.0
 40
8.0
 40
8.0
 40
8.0
 40
8.0
 10
1.665841028428619
 20
-1.486105594135072
 30
0.0
 10
1.665841028428619
 20
-1.486105594135072
 30
0.0
 10
1.787820531162563
 20
-1.528389781726673
 30
0.0
 10
1.945053924981026
 20
-1.82237757403291
 30
0.0
 10
1.945053924981026
 20
-1.82237757403291
 30
0.0
 10
2.208936722667128
 20
-2.204797750530298
 30
0.0
 10
2.473975008793205
 20
-2.414293403062857
 30
0.0
 10
2.473975008793205
 20
-2.414293403062857
 30
0.0
 10
2.917392330152047
 20
-2.727060735145263
 30
0.0
 10
3.217703669227717
 20
-2.922441749657335
 30
0.0
 10
3.217703669227717
 20
-2.922441749657335
 30
0.0
 10
3.57826306567007
 20
-3.151791486550387
 30
0.0
 10
3.613903998465856
 20
-3.80624319237495
 30
0.0
 10
3.613903998465856
 20
-3.80624319237495
 30
0.0
 10
3.787493693021411
 20
-3.324754751379942
 30
0.0
 10
3.295219023975278
 20
-2.840186627180047
 30
0.0
 10
3.295219023975278
 20
-2.840186627180047
 30
0.0
 10
2.899230365108047
 20
-2.506286612636864
 30
0.0
 10
2.600845266217258
 20
-2.322294020020245
 30
0.0
 10
2.600845266217258
 20
-2.322294020020245
 30
0.0
 10
2.257770511033388
 20
-2.125851368706106
 30
0.0
 10
2.04818335676066
 20
-1.762835768841784
 30
0.0
 10
2.04818335676066
 20
-1.762835768841784
 30
0.0
 10
1.867656349536598
 20
-1.482751447918746
 30
0.0
 10
1.873339293940148
 20
-1.292257475485977
 30
0.0
  0
SPLINE
  5
60
330
1F
100
AcDbEntity
  8
Layer 1
 62
   179
420
  2301728
370
     5
100
AcDbSpline
210
0.0
220
0.0
230
1.0
 70
     8
 71
     3
 72
     8
 73
     4
 74
     0
 42
0.0000000001
 43
0.0000000001
 12
1.0
 22
0.0
 32
0.0
 13
1.0
 23
0.0
 33
0.0
 40
0.0
 40
0.0
 40
0.0
 40
0.0
 40
1.0
 40
1.0
 40
1.0
 40
1.0
 10
2.486598047568817
 20
-0.9613268263741727
 30
0.0
 10
2.486598047568817
 20
-0.9613268263741727
 30
0.0
 10
2.616089962234708
 20
-0.9663493915577039
 30
0.0
 10
2.677949585005485
 20
-0.9868871390344162
 30
0.0
  0
SPLINE
  5
61
330
1F
100
AcDbEntity
  8
Layer 1
 62
   179
420
  2301728
370
     5
100
AcDbSpline
210
0.0
220
0.0
230
1.0
 70
     8
 71
     3
 72
     8
 73
     4
 74
     0
 42
0.0000000001
 43
0.0000000001
 12
1.0
 22
0.0
 32
0.0
 13
1.0
 23
0.0
 33
0.0
 40
0.0
 40
0.0
 40
0.0
 40
0.0
 40
1.0
 40
1.0
 40
1.0
 40
1.0
 10
2.490218569754511
 20
-0.8146626005169789
 30
0.0
 10
2.490218569754511
 20
-0.8146626005169789
 30
0.0
 10
2.546972291844567
 20
-0.8033309256000696
 30
0.0
 10
2.669966347449657
 20
-0.8323245719739513
 30
0.0
  0
SPLINE
  5
62
330
1F
100
AcDbEntity
  8
Layer 1
 62
   179
420
  2301728
370
     5
100
AcDbSpline
210
0.0
220
0.0
230
1.0
 70
     8
 71
     3
 72
     8
 73
     4
 74
     0
 42
0.0000000001
 43
0.0000000001
 12
1.0
 22
0.0
 32
0.0
 13
1.0
 23
0.0
 33
0.0
 40
0.0
 40
0.0
 40
0.0
 40
0.0
 40
1.0
 40
1.0
 40
1.0
 40
1.0
 10
4.707295548190182
 20
-2.018526735434382
 30
0.0
 10
4.707295548190182
 20
-2.018526735434382
 30
0.0
 10
4.629418602625265
 20
-1.979133735228313
 30
0.0
 10
4.50461576785008
 20
-1.990310322488755
 30
0.0
  0
SPLINE
  5
63
330
1F
100
AcDbEntity
  8
Layer 1
 62
   179
420
  2301728
370
     5
100
AcDbSpline
210
0.0
220
0.0
230
1.0
 70
     8
 71
     3
 72
     8
 73
     4
 74
     0
 42
0.0000000001
 43
0.0000000001
 12
1.0
 22
0.0
 32
0.0
 13
1.0
 23
0.0
 33
0.0
 40
0.0
 40
0.0
 40
0.0
 40
0.0
 40
1.0
 40
1.0
 40
1.0
 40
1.0
 10
4.756502310061983
 20
-1.812219032919883
 30
0.0
 10
4.756502310061983
 20
-1.812219032919883
 30
0.0
 10
4.614420483786741
 20
-1.803533491287819
 30
0.0
 10
4.512966754462998
 20
-1.843357023438241
 30
0.0
  0
SPLINE
  5
64
330
1F
100
AcDbEntity
  8
Layer 1
 62
   179
420
  2301728
370
     5
100
AcDbSpline
210
0.0
220
0.0
230
1.0
 70
     8
 71
     3
 72
     8
 73
     4
 74
     0
 42
0.0000000001
 43
0.0000000001
 12
1.0
 22
0.0
 32
0.0
 13
1.0
 23
0.0
 33
0.0
 40
0.0
 40
0.0
 40
0.0
 40
0.0
 40
1.0
 40
1.0
 40
1.0
 40
1.0
 10
3.070902787123524
 20
-3.140120068309038
 30
0.0
 10
3.070902787123524
 20
-3.140120068309038
 30
0.0
 10
2.923817903511463
 20
-3.025139665648314
 30
0.0
 10
2.725945648506518
 20
-3.042007157260918
 30
0.0
  0
SPLINE
  5
65
330
1F
100
AcDbEntity
  8
Layer 1
 62
   179
420
  2301728
370
     5
100
AcDbSpline
210
0.0
220
0.0
230
1.0
 70
     8
 71
     3
 72
     8
 73
     4
 74
     0
 42
0.0000000001
 43
0.0000000001
 12
1.0
 22
0.0
 32
0.0
 13
1.0
 23
0.0
 33
0.0
 40
0.0
 40
0.0
 40
0.0
 40
0.0
 40
1.0
 40
1.0
 40
1.0
 40
1.0
 10
2.425049361115207
 20
-2.801093002750084
 30
0.0
 10
2.425049361115207
 20
-2.801093002750084
 30
0.0
 10
2.462619019044559
 20
-2.811941495875544
 30
0.0
 10
2.560492637512463
 20
-2.755434135914343
 30
0.0
  0
SPLINE
  5
66
330
1F
100
AcDbEntity
  8
Layer 1
 62
   179
420
  2301728
370
     5
100
AcDbSpline
210
0.0
220
0.0
230
1.0
 70
     8
 71
     3
 72
     8
 73
     4
 74
     0
 42
0.0000000001
 43
0.0000000001
 12
1.0
 22
0.0
 32
0.0
 13
1.0
 23
0.0
 33
0.0
 40
0.0
 40
0.0
 40
0.0
 40
0.0
 40
1.0
 40
1.0
 40
1.0
 40
1.0
 10
1.764579334221493
 20
-2.687007724051253
 30
0.0
 10
1.764579334221493
 20
-2.687007724051253
 30
0.0
 10
1.635257565733291
 20
-2.64899153275927
 30
0.0
 10
1.575545998062555
 20
-2.665670819066375
 30
0.0
  0
SPLINE
  5
67
330
1F
100
AcDbEntity
  8
Layer 1
 62
   179
420
  2301728
370
     5
100
AcDbSpline
210
0.0
220
0.0
230
1.0
 70
     8
 71
     3
 72
     8
 73
     4
 74
     0
 42
0.0000000001
 43
0.0000000001
 12
1.0
 22
0.0
 32
0.0
 13
1.0
 23
0.0
 33
0.0
 40
0.0
 40
0.0
 40
0.0
 40
0.0
 40
1.0
 40
1.0
 40
1.0
 40
1.0
 10
1.223167605111384
 20
-2.626020056301627
 30
0.0
 10
1.223167605111384
 20
-2.626020056301627
 30
0.0
 10
1.254688521591283
 20
-2.714488077052579
 30
0.0
 10
1.265143853326397
 20
-2.767769032983589
 30
0.0
  0
SPLINE
  5
68
330
1F
100
AcDbEntity
  8
Layer 1
 62
   179
420
  2301728
370
     5
100
AcDbSpline
210
0.0
220
0.0
230
1.0
 70
     8
 71
     3
 72
     8
 73
     4
 74
     0
 42
0.0000000001
 43
0.0000000001
 12
1.0
 22
0.0
 32
0.0
 13
1.0
 23
0.0
 33
0.0
 40
0.0
 40
0.0
 40
0.0
 40
0.0
 40
1.0
 40
1.0
 40
1.0
 40
1.0
 10
1.705746406184125
 20
-2.285964032795782
 30
0.0
 10
1.705746406184125
 20
-2.285964032795782
 30
0.0
 10
1.814486382632418
 20
-2.195273234272122
 30
0.0
 10
1.852808565603254
 20
-2.152520921107844
 30
0.0
  0
SPLINE
  5
69
330
1F
100
AcDbEntity
  8
Layer 1
 62
   179
420
  2301728
370
     5
100
AcDbSpline
210
0.0
220
0.0
230
1.0
 70
     8
 71
     3
 72
     8
 73
     4
 74
     0
 42
0.0000000001
 43
0.0000000001
 12
1.0
 22
0.0
 32
0.0
 13
1.0
 23
0.0
 33
0.0
 40
0.0
 40
0.0
 40
0.0
 40
0.0
 40
1.0
 40
1.0
 40
1.0
 40
1.0
 10
2.413299802119139
 20
-1.612552926859065
 30
0.0
 10
2.413299802119139
 20
-1.612552926859065
 30
0.0
 10
2.347989385782171
 20
-1.67398085169283
 30
0.0
 10
2.303908685252357
 20
-1.723157793815024
 30
0.0
  0
SPLINE
  5
6A
330
1F
100
AcDbEntity
  8
Layer 1
 62
   179
420
  2301728
370
     5
100
AcDbSpline
210
0.0
220
0.0
230
1.0
 70
     8
 71
     3
 72
     8
 73
     4
 74
     0
 42
0.0000000001
 43
0.0000000001
 12
1.0
 22
0.0
 32
0.0
 13
1.0
 23
0.0
 33
0.0
 40
0.0
 40
0.0
 40
0.0
 40
0.0
 40
1.0
 40
1.0
 40
1.0
 40
1.0
 10
2.7528787534246
 20
-1.295492280626036
 30
0.0
 10
2.7528787534246
 20
-1.295492280626036
 30
0.0
 10
2.846703471005715
 20
-1.350463733089871
 30
0.0
 10
2.942191685373915
 20
-1.330920993829295
 30
0.0
  0
SPLINE
  5
6B
330
1F
100
AcDbEntity
  8
Layer 1
 62
   179
420
  2301728
370
     5
100
AcDbSpline
210
0.0
220
0.0
230
1.0
 70
     8
 71
     3
 72
     8
 73
     4
 74
     0
 42
0.0000000001
 43
0.0000000001
 12
1.0
 22
0.0
 32
0.0
 13
1.0
 23
0.0
 33
0.0
 40
0.0
 40
0.0
 40
0.0
 40
0.0
 40
1.0
 40
1.0
 40
1.0
 40
1.0
 10
2.804480265925336
 20
-1.896378714253122
 30
0.0
 10
2.804480265925336
 20
-1.896378714253122
 30
0.0
 10
2.76213748450535
 20
-1.820435074836066
 30
0.0
 10
2.750806364822956
 20
-1.708342410790199
 30
0.0
  0
SPLINE
  5
6C
330
1F
100
AcDbEntity
  8
Layer 1
 62
   179
420
  2301728
370
     5
100
AcDbSpline
210
0.0
220
0.0
230
1.0
 70
     8
 71
     3
 72
     8
 73
     4
 74
     0
 42
0.0000000001
 43
0.0000000001
 12
1.0
 22
0.0
 32
0.0
 13
1.0
 23
0.0
 33
0.0
 40
0.0
 40
0.0
 40
0.0
 40
0.0
 40
1.0
 40
1.0
 40
1.0
 40
1.0
 10
3.18395630403874
 20
-2.279397329249946
 30
0.0
 10
3.18395630403874
 20
-2.279397329249946
 30
0.0
 10
3.127948290246574
 20
-2.335956772337176
 30
0.0
 10
3.10842029311785
 20
-2.422818283877203
 30
0.0
  0
SPLINE
  5
6D
330
1F
100
AcDbEntity
  8
Layer 1
 62
   179
420
  2301728
370
     5
100
AcDbSpline
210
0.0
220
0.0
230
1.0
 70
     8
 71
     3
 72
     8
 73
     4
 74
     0
 42
0.0000000001
 43
0.0000000001
 12
1.0
 22
0.0
 32
0.0
 13
1.0
 23
0.0
 33
0.0
 40
0.0
 40
0.0
 40
0.0
 40
0.0
 40
1.0
 40
1.0
 40
1.0
 40
1.0
 10
3.539736217788105
 20
-2.768465178023234
 30
0.0
 10
3.539736217788105
 20
-2.768465178023234
 30
0.0
 10
3.411709360166014
 20
-2.646898745152473
 30
0.0
 10
3.43013314613313
 20
-2.468531298608632
 30
0.0
  0
ENDSEC
  0
SECTION
  2
OBJECTS
  0
DICTIONARY
  5
C
330
0
100
AcDbDictionary
281
     1
  3
ACAD_GROUP
350
D
  3
ACAD_LAYOUT
350
1A
  3
ACAD_MATERIAL
350
3B
  3
ACAD_MLEADERSTYLE
350
6F
  3
ACAD_MLINESTYLE
350
17
  3
ACAD_PLOTSETTINGS
350
19
  3
ACAD_PLOTSTYLENAME
350
E
  3
ACAD_TABLESTYLE
350
6E
  3
ACAD_VISUALSTYLE
350
2A
  0
SUN
  5
3F
330
29
100
AcDbSun
 90
        1
290
     0
 63
     7
421
 16777215
 40
1.0
291
     1
 91
  2455826
 92
 54000000
292
     0
 70
     2
 71
   256
280
     1
  0
DICTIONARY
  5
D
102
{ACAD_REACTORS
330
C
102
}
330
C
100
AcDbDictionary
281
     1
  0
DICTIONARY
  5
1A
102
{ACAD_REACTORS
330
C
102
}
330
C
100
AcDbDictionary
281
     1
  3
Layout1
350
1E
  3
Layout2
350
26
  3
Model
350
22
  0
DICTIONARY
  5
3B
102
{ACAD_REACTORS
330
C
102
}
330
C
100
AcDbDictionary
281
     1
  3
ByBlock
350
3D
  3
ByLayer
350
3C
  3
Global
350
3E
  0
DICTIONARY
  5
6F
102
{ACAD_REACTORS
330
C
102
}
330
C
100
AcDbDictionary
281
     1
  0
DICTIONARY
  5
17
102
{ACAD_REACTORS
330
C
102
}
330
C
100
AcDbDictionary
281
     1
  3
Standard
350
18
  0
DICTIONARY
  5
19
102
{ACAD_REACTORS
330
C
102
}
330
C
100
AcDbDictionary
281
     1
  0
ACDBDICTIONARYWDFLT
  5
E
102
{ACAD_REACTORS
330
C
102
}
330
C
100
AcDbDictionary
281
     1
  3
Normal
350
F
100
AcDbDictionaryWithDefault
340
F
  0
DICTIONARY
  5
6E
102
{ACAD_REACTORS
330
C
102
}
330
C
100
AcDbDictionary
281
     1
  0
DICTIONARY
  5
2A
102
{ACAD_REACTORS
330
C
102
}
330
C
100
AcDbDictionary
281
     1
  3
2dWireframe
350
2F
  3
3D Hidden
350
31
  3
3dWireframe
350
30
  3
Basic
350
32
  3
Brighten
350
36
  3
ColorChange
350
3A
  3
Conceptual
350
34
  3
Dim
350
35
  3
Facepattern
350
39
  3
Flat
350
2B
  3
FlatWithEdges
350
2C
  3
Gouraud
350
2D
  3
GouraudWithEdges
350
2E
  3
Linepattern
350
38
  3
Realistic
350
33
  3
Thicken
350
37
  0
LAYOUT
  5
1E
102
{ACAD_REACTORS
330
1A
102
}
330
1A
100
AcDbPlotSettings
  1

  2
none_device
  4

  6

 40
0.0
 41
0.0
 42
0.0
 43
0.0
 44
0.0
 45
0.0
 46
0.0
 47
0.0
 48
0.0
 49
0.0
140
0.0
141
0.0
142
1.0
143
1.0
 70
   688
 72
     0
 73
     0
 74
     5
  7

 75
    16
 76
     0
 77
     2
 78
   300
147
1.0
148
0.0
149
0.0
100
AcDbLayout
  1
Layout1
 70
     1
 71
     1
 10
0.0
 20
0.0
 11
12.0
 21
9.0
 12
0.0
 22
0.0
 32
0.0
 14
1.000000000000000E+20
 24
1.000000000000000E+20
 34
1.000000000000000E+20
 15
-1.000000000000000E+20
 25
-1.000000000000000E+20
 35
-1.000000000000000E+20
146
0.0
 13
0.0
 23
0.0
 33
0.0
 16
1.0
 26
0.0
 36
0.0
 17
0.0
 27
1.0
 37
0.0
 76
     0
330
1B
  0
LAYOUT
  5
26
102
{ACAD_REACTORS
330
1A
102
}
330
1A
100
AcDbPlotSettings
  1

  2
none_device
  4

  6

 40
0.0
 41
0.0
 42
0.0
 43
0.0
 44
0.0
 45
0.0
 46
0.0
 47
0.0
 48
0.0
 49
0.0
140
0.0
141
0.0
142
1.0
143
1.0
 70
   688
 72
     0
 73
     0
 74
     5
  7

 75
    16
 76
     0
 77
     2
 78
   300
147
1.0
148
0.0
149
0.0
100
AcDbLayout
  1
Layout2
 70
     1
 71
     2
 10
0.0
 20
0.0
 11
0.0
 21
0.0
 12
0.0
 22
0.0
 32
0.0
 14
0.0
 24
0.0
 34
0.0
 15
0.0
 25
0.0
 35
0.0
146
0.0
 13
0.0
 23
0.0
 33
0.0
 16
1.0
 26
0.0
 36
0.0
 17
0.0
 27
1.0
 37
0.0
 76
     0
330
23
  0
LAYOUT
  5
22
102
{ACAD_REACTORS
330
1A
102
}
330
1A
100
AcDbPlotSettings
  1

  2
none_device
  4

  6

 40
0.0
 41
0.0
 42
0.0
 43
0.0
 44
0.0
 45
0.0
 46
0.0
 47
0.0
 48
0.0
 49
0.0
140
0.0
141
0.0
142
1.0
143
1.0
 70
  1712
 72
     0
 73
     0
 74
     0
  7

 75
     0
 76
     0
 77
     2
 78
   300
147
1.0
148
0.0
149
0.0
100
AcDbLayout
  1
Model
 70
     1
 71
     0
 10
0.0
 20
0.0
 11
12.0
 21
9.0
 12
0.0
 22
0.0
 32
0.0
 14
1.000000000000000E+20
 24
1.000000000000000E+20
 34
1.000000000000000E+20
 15
-1.000000000000000E+20
 25
-1.000000000000000E+20
 35
-1.000000000000000E+20
146
0.0
 13
0.0
 23
0.0
 33
0.0
 16
1.0
 26
0.0
 36
0.0
 17
0.0
 27
1.0
 37
0.0
 76
     0
330
1F
331
29
  0
MATERIAL
  5
3D
102
{ACAD_REACTORS
330
3B
102
}
330
3B
100
AcDbMaterial
  1
ByBlock
 72
     1
 94
      127
  0
MATERIAL
  5
3C
102
{ACAD_REACTORS
330
3B
102
}
330
3B
100
AcDbMaterial
  1
ByLayer
 72
     1
 94
      127
  0
MATERIAL
  5
3E
102
{ACAD_REACTORS
330
3B
102
}
330
3B
100
AcDbMaterial
  1
Global
 72
     1
 94
      127
  0
MLINESTYLE
  5
18
102
{ACAD_REACTORS
330
17
102
}
330
17
100
AcDbMlineStyle
  2
Standard
 70
     0
  3

 62
   256
 51
90.0
 52
90.0
 71
     2
 49
0.5
 62
   256
  6
BYLAYER
 49
-0.5
 62
   256
  6
BYLAYER
  0
ACDBPLACEHOLDER
  5
F
102
{ACAD_REACTORS
330
E
102
}
330
E
  0
VISUALSTYLE
  5
2F
102
{ACAD_REACTORS
330
2A
102
}
330
2A
100
AcDbVisualStyle
  2
2dWireframe
 70
     4
177
     2
291
     0
 71
     0
176
     1
 72
     2
176
     1
 73
     0
176
     1
 90
        0
176
     1
 40
-0.6
176
     1
 41
-30.0
176
     1
 62
     5
 63
     7
421
 16777215
176
     1
 74
     1
176
     1
 91
        4
176
     1
 64
     7
176
     1
 65
   257
176
     1
 75
     1
176
     1
175
     1
176
     1
 42
1.0
176
     1
 92
        0
176
     1
 66
   257
176
     1
 43
1.0
176
     1
 76
     1
176
     1
 77
     6
176
     1
 78
     2
176
     1
 67
     7
176
     1
 79
     5
176
     1
170
     0
176
     1
171
     0
176
     1
290
     0
176
     1
 93
        1
176
     1
 44
0.0
176
     1
173
     0
176
     1
  0
VISUALSTYLE
  5
31
102
{ACAD_REACTORS
330
2A
102
}
330
2A
100
AcDbVisualStyle
  2
3D Hidden
 70
     6
177
     2
291
     0
 71
     1
176
     1
 72
     2
176
     1
 73
     2
176
     1
 90
        0
176
     1
 40
-0.6
176
     1
 41
-30.0
176
     1
 62
     5
 63
     7
421
 16777215
176
     1
 74
     2
176
     1
 91
        2
176
     1
 64
     7
176
     1
 65
   257
176
     1
 75
     2
176
     1
175
     1
176
     1
 42
40.0
176
     1
 92
        0
176
     1
 66
   257
176
     1
 43
1.0
176
     1
 76
     1
176
     1
 77
     6
176
     1
 78
     2
176
     1
 67
     7
176
     1
 79
     3
176
     1
170
     0
176
     1
171
     0
176
     1
290
     0
176
     1
 93
        1
176
     1
 44
0.0
176
     1
173
     0
176
     1
  0
VISUALSTYLE
  5
30
102
{ACAD_REACTORS
330
2A
102
}
330
2A
100
AcDbVisualStyle
  2
3dWireframe
 70
     5
177
     2
291
     0
 71
     0
176
     1
 72
     2
176
     1
 73
     0
176
     1
 90
        0
176
     1
 40
-0.6
176
     1
 41
-30.0
176
     1
 62
     5
 63
     7
421
 16777215
176
     1
 74
     1
176
     1
 91
        4
176
     1
 64
     7
176
     1
 65
   257
176
     1
 75
     1
176
     1
175
     1
176
     1
 42
1.0
176
     1
 92
        0
176
     1
 66
   257
176
     1
 43
1.0
176
     1
 76
     1
176
     1
 77
     6
176
     1
 78
     2
176
     1
 67
     7
176
     1
 79
     5
176
     1
170
     0
176
     1
171
     0
176
     1
290
     0
176
     1
 93
        1
176
     1
 44
0.0
176
     1
173
     0
176
     1
  0
VISUALSTYLE
  5
32
102
{ACAD_REACTORS
330
2A
102
}
330
2A
100
AcDbVisualStyle
  2
Basic
 70
     7
177
     2
291
     1
 71
     1
176
     1
 72
     0
176
     1
 73
     1
176
     1
 90
        0
176
     1
 40
-0.6
176
     1
 41
-30.0
176
     1
 62
     5
 63
     7
421
 16777215
176
     1
 74
     0
176
     1
 91
        4
176
     1
 64
     7
176
     1
 65
   257
176
     1
 75
     1
176
     1
175
     1
176
     1
 42
1.0
176
     1
 92
        8
176
     1
 66
     7
176
     1
 43
1.0
176
     1
 76
     1
176
     1
 77
     6
176
     1
 78
     2
176
     1
 67
     7
176
     1
 79
     5
176
     1
170
     0
176
     1
171
     0
176
     1
290
     0
176
     1
 93
        1
176
     1
 44
0.0
176
     1
173
     0
176
     1
  0
VISUALSTYLE
  5
36
102
{ACAD_REACTORS
330
2A
102
}
330
2A
100
AcDbVisualStyle
  2
Brighten
 70
    12
177
     2
291
     1
 71
     2
176
     1
 72
     2
176
     1
 73
     0
176
     1
 90
        0
176
     1
 40
-0.6
176
     1
 41
-30.0
176
     1
 62
     5
 63
     7
421
 16777215
176
     1
 74
     1
176
     1
 91
        4
176
     1
 64
     7
176
     1
 65
   257
176
     1
 75
     1
176
     1
175
     1
176
     1
 42
1.0
176
     1
 92
        8
176
     1
 66
     7
176
     1
 43
1.0
176
     1
 76
     1
176
     1
 77
     6
176
     1
 78
     2
176
     1
 67
     7
176
     1
 79
     5
176
     1
170
     0
176
     1
171
     0
176
     1
290
     0
176
     1
 93
        1
176
     1
 44
50.0
176
     1
173
     0
176
     1
  0
VISUALSTYLE
  5
3A
102
{ACAD_REACTORS
330
2A
102
}
330
2A
100
AcDbVisualStyle
  2
ColorChange
 70
    16
177
     2
291
     1
 71
     2
176
     1
 72
     2
176
     1
 73
     3
176
     1
 90
        0
176
     1
 40
-0.6
176
     1
 41
-30.0
176
     1
 62
     5
 63
     8
421
  8421504
176
     1
 74
     1
176
     1
 91
        4
176
     1
 64
     7
176
     1
 65
   257
176
     1
 75
     1
176
     1
175
     1
176
     1
 42
1.0
176
     1
 92
        8
176
     1
 66
     8
424
  8421504
176
     1
 43
1.0
176
     1
 76
     1
176
     1
 77
     6
176
     1
 78
     2
176
     1
 67
     7
176
     1
 79
     5
176
     1
170
     0
176
     1
171
     0
176
     1
290
     0
176
     1
 93
        1
176
     1
 44
0.0
176
     1
173
     0
176
     1
  0
VISUALSTYLE
  5
34
102
{ACAD_REACTORS
330
2A
102
}
330
2A
100
AcDbVisualStyle
  2
Conceptual
 70
     9
177
     2
291
     0
 71
     3
176
     1
 72
     2
176
     1
 73
     0
176
     1
 90
        0
176
     1
 40
-0.6
176
     1
 41
-30.0
176
     1
 62
     5
 63
     7
421
 16777215
176
     1
 74
     2
176
     1
 91
        2
176
     1
 64
     7
176
     1
 65
   257
176
     1
 75
     1
176
     1
175
     1
176
     1
 42
40.0
176
     1
 92
        8
176
     1
 66
     7
176
     1
 43
1.0
176
     1
 76
     1
176
     1
 77
     6
176
     1
 78
     2
176
     1
 67
     7
176
     1
 79
     3
176
     1
170
     0
176
     1
171
     0
176
     1
290
     0
176
     1
 93
        1
176
     1
 44
0.0
176
     1
173
     0
176
     1
  0
VISUALSTYLE
  5
35
102
{ACAD_REACTORS
330
2A
102
}
330
2A
100
AcDbVisualStyle
  2
Dim
 70
    11
177
     2
291
     1
 71
     2
176
     1
 72
     2
176
     1
 73
     0
176
     1
 90
        0
176
     1
 40
-0.6
176
     1
 41
-30.0
176
     1
 62
     5
 63
     7
421
 16777215
176
     1
 74
     1
176
     1
 91
        4
176
     1
 64
     7
176
     1
 65
   257
176
     1
 75
     1
176
     1
175
     1
176
     1
 42
1.0
176
     1
 92
        8
176
     1
 66
     7
176
     1
 43
1.0
176
     1
 76
     1
176
     1
 77
     6
176
     1
 78
     2
176
     1
 67
     7
176
     1
 79
     5
176
     1
170
     0
176
     1
171
     0
176
     1
290
     0
176
     1
 93
        1
176
     1
 44
-50.0
176
     1
173
     0
176
     1
  0
VISUALSTYLE
  5
39
102
{ACAD_REACTORS
330
2A
102
}
330
2A
100
AcDbVisualStyle
  2
Facepattern
 70
    15
177
     2
291
     1
 71
     2
176
     1
 72
     2
176
     1
 73
     0
176
     1
 90
        0
176
     1
 40
-0.6
176
     1
 41
-30.0
176
     1
 62
     5
 63
     7
421
 16777215
176
     1
 74
     1
176
     1
 91
        4
176
     1
 64
     7
176
     1
 65
   257
176
     1
 75
     1
176
     1
175
     1
176
     1
 42
1.0
176
     1
 92
        8
176
     1
 66
     7
176
     1
 43
1.0
176
     1
 76
     1
176
     1
 77
     6
176
     1
 78
     2
176
     1
 67
     7
176
     1
 79
     5
176
     1
170
     0
176
     1
171
     0
176
     1
290
     0
176
     1
 93
        1
176
     1
 44
0.0
176
     1
173
     0
176
     1
  0
VISUALSTYLE
  5
2B
102
{ACAD_REACTORS
330
2A
102
}
330
2A
100
AcDbVisualStyle
  2
Flat
 70
     0
177
     2
291
     1
 71
     2
176
     1
 72
     1
176
     1
 73
     1
176
     1
 90
        2
176
     1
 40
-0.6
176
     1
 41
30.0
176
     1
 62
     5
 63
     7
421
 16777215
176
     1
 74
     0
176
     1
 91
        4
176
     1
 64
     7
176
     1
 65
   257
176
     1
 75
     1
176
     1
175
     1
176
     1
 42
1.0
176
     1
 92
        8
176
     1
 66
     7
176
     1
 43
1.0
176
     1
 76
     1
176
     1
 77
     6
176
     1
 78
     2
176
     1
 67
     7
176
     1
 79
     5
176
     1
170
     0
176
     1
171
     0
176
     1
290
     0
176
     1
 93
       13
176
     1
 44
0.0
176
     1
173
     0
176
     1
  0
VISUALSTYLE
  5
2C
102
{ACAD_REACTORS
330
2A
102
}
330
2A
100
AcDbVisualStyle
  2
FlatWithEdges
 70
     1
177
     2
291
     1
 71
     2
176
     1
 72
     1
176
     1
 73
     1
176
     1
 90
        2
176
     1
 40
-0.6
176
     1
 41
30.0
176
     1
 62
     5
 63
     7
421
 16777215
176
     1
 74
     1
176
     1
 91
        4
176
     1
 64
     7
176
     1
 65
   257
176
     1
 75
     1
176
     1
175
     1
176
     1
 42
1.0
176
     1
 92
        0
176
     1
 66
   257
176
     1
 43
1.0
176
     1
 76
     1
176
     1
 77
     6
176
     1
 78
     2
176
     1
 67
     7
176
     1
 79
     5
176
     1
170
     0
176
     1
171
     0
176
     1
290
     0
176
     1
 93
       13
176
     1
 44
0.0
176
     1
173
     0
176
     1
  0
VISUALSTYLE
  5
2D
102
{ACAD_REACTORS
330
2A
102
}
330
2A
100
AcDbVisualStyle
  2
Gouraud
 70
     2
177
     2
291
     1
 71
     2
176
     1
 72
     2
176
     1
 73
     1
176
     1
 90
        2
176
     1
 40
-0.6
176
     1
 41
30.0
176
     1
 62
     5
 63
     7
421
 16777215
176
     1
 74
     0
176
     1
 91
        4
176
     1
 64
     7
176
     1
 65
   257
176
     1
 75
     1
176
     1
175
     1
176
     1
 42
1.0
176
     1
 92
        0
176
     1
 66
     7
176
     1
 43
1.0
176
     1
 76
     1
176
     1
 77
     6
176
     1
 78
     2
176
     1
 67
     7
176
     1
 79
     5
176
     1
170
     0
176
     1
171
     0
176
     1
290
     0
176
     1
 93
       13
176
     1
 44
0.0
176
     1
173
     0
176
     1
  0
VISUALSTYLE
  5
2E
102
{ACAD_REACTORS
330
2A
102
}
330
2A
100
AcDbVisualStyle
  2
GouraudWithEdges
 70
     3
177
     2
291
     1
 71
     2
176
     1
 72
     2
176
     1
 73
     1
176
     1
 90
        2
176
     1
 40
-0.6
176
     1
 41
30.0
176
     1
 62
     5
 63
     7
421
 16777215
176
     1
 74
     1
176
     1
 91
        4
176
     1
 64
     7
176
     1
 65
   257
176
     1
 75
     1
176
     1
175
     1
176
     1
 42
1.0
176
     1
 92
        0
176
     1
 66
   257
176
     1
 43
1.0
176
     1
 76
     1
176
     1
 77
     6
176
     1
 78
     2
176
     1
 67
     7
176
     1
 79
     5
176
     1
170
     0
176
     1
171
     0
176
     1
290
     0
176
     1
 93
       13
176
     1
 44
0.0
176
     1
173
     0
176
     1
  0
VISUALSTYLE
  5
38
102
{ACAD_REACTORS
330
2A
102
}
330
2A
100
AcDbVisualStyle
  2
Linepattern
 70
    14
177
     2
291
     1
 71
     2
176
     1
 72
     2
176
     1
 73
     0
176
     1
 90
        0
176
     1
 40
-0.6
176
     1
 41
-30.0
176
     1
 62
     5
 63
     7
421
 16777215
176
     1
 74
     1
176
     1
 91
        4
176
     1
 64
     7
176
     1
 65
   257
176
     1
 75
     7
176
     1
175
     7
176
     1
 42
1.0
176
     1
 92
        8
176
     1
 66
     7
176
     1
 43
1.0
176
     1
 76
     1
176
     1
 77
     6
176
     1
 78
     2
176
     1
 67
     7
176
     1
 79
     5
176
     1
170
     0
176
     1
171
     0
176
     1
290
     0
176
     1
 93
        1
176
     1
 44
0.0
176
     1
173
     0
176
     1
  0
VISUALSTYLE
  5
33
102
{ACAD_REACTORS
330
2A
102
}
330
2A
100
AcDbVisualStyle
  2
Realistic
 70
     8
177
     2
291
     0
 71
     2
176
     1
 72
     2
176
     1
 73
     0
176
     1
 90
        0
176
     1
 40
-0.6
176
     1
 41
-30.0
176
     1
 62
     5
 63
     7
421
 16777215
176
     1
 74
     1
176
     1
 91
        0
176
     1
 64
     7
176
     1
 65
   257
176
     1
 75
     1
176
     1
175
     1
176
     1
 42
1.0
176
     1
 92
        8
176
     1
 66
     8
424
  7895160
176
     1
 43
1.0
176
     1
 76
     1
176
     1
 77
     6
176
     1
 78
     2
176
     1
 67
     7
176
     1
 79
     5
176
     1
170
     0
176
     1
171
     0
176
     1
290
     0
176
     1
 93
       13
176
     1
 44
0.0
176
     1
173
     0
176
     1
  0
VISUALSTYLE
  5
37
102
{ACAD_REACTORS
330
2A
102
}
330
2A
100
AcDbVisualStyle
  2
Thicken
 70
    13
177
     2
291
     1
 71
     2
176
     1
 72
     2
176
     1
 73
     0
176
     1
 90
        0
176
     1
 40
-0.6
176
     1
 41
-30.0
176
     1
 62
     5
 63
     7
421
 16777215
176
     1
 74
     1
176
     1
 91
        4
176
     1
 64
     7
176
     1
 65
   257
176
     1
 75
     1
176
     1
175
     1
176
     1
 42
1.0
176
     1
 92
       12
176
     1
 66
     7
176
     1
 43
1.0
176
     1
 76
     1
176
     1
 77
     6
176
     1
 78
     2
176
     1
 67
     7
176
     1
 79
     5
176
     1
170
     0
176
     1
171
     0
176
     1
290
     0
176
     1
 93
        1
176
     1
 44
0.0
176
     1
173
     0
176
     1
  0
ENDSEC
  0
EOF
